<?xml version="1.0" encoding="UTF-8"?>
<!DOCTYPE svg PUBLIC "-//W3C//DTD SVG 1.1//EN" "http://www.w3.org/Graphics/SVG/1.1/DTD/svg11.dtd">
<svg xmlns="http://www.w3.org/2000/svg" version="1.1" width="326px" height="356px" style="shape-rendering:geometricPrecision; text-rendering:geometricPrecision; image-rendering:optimizeQuality; fill-rule:evenodd; clip-rule:evenodd" xmlns:xlink="http://www.w3.org/1999/xlink">
<g><path style="opacity:0.227" fill="#b4bfcc" d="M 286.5,29.5 C 295.657,28.3424 304.991,28.1757 314.5,29C 315.252,29.6708 315.586,30.5041 315.5,31.5C 305.802,30.8587 296.136,30.192 286.5,29.5 Z"/></g>
<g><path style="opacity:0.785" fill="#b0bfcf" d="M 254.5,28.5 C 245.56,30.4722 236.227,31.1389 226.5,30.5C 226.611,29.8826 226.944,29.3826 227.5,29C 236.494,28.5002 245.494,28.3336 254.5,28.5 Z"/></g>
<g><path style="opacity:0.998" fill="#336294" d="M 254.5,28.5 C 265.085,29.4758 275.752,29.8091 286.5,29.5C 296.136,30.192 305.802,30.8587 315.5,31.5C 316.777,34.2053 316.61,36.872 315,39.5C 314.558,65.5713 314.391,91.5713 314.5,117.5C 285.851,117.192 257.184,117.525 228.5,118.5C 227.902,111.368 227.235,104.368 226.5,97.5C 226.5,94.8333 226.5,92.1667 226.5,89.5C 227.818,78.9315 227.818,68.2648 226.5,57.5C 226.736,54.3915 226.403,51.3915 225.5,48.5C 226.814,46.0849 227.481,43.2515 227.5,40C 227.458,36.7492 227.125,33.5826 226.5,30.5C 236.227,31.1389 245.56,30.4722 254.5,28.5 Z"/></g>
<g><path style="opacity:0.273" fill="#b4c0cf" d="M 226.5,30.5 C 227.125,33.5826 227.458,36.7492 227.5,40C 227.481,43.2515 226.814,46.0849 225.5,48.5C 225.177,42.31 225.51,36.31 226.5,30.5 Z"/></g>
<g><path style="opacity:0.816" fill="#abbbcf" d="M 226.5,57.5 C 227.818,68.2648 227.818,78.9315 226.5,89.5C 225.167,78.8333 225.167,68.1667 226.5,57.5 Z"/></g>
<g><path style="opacity:0.275" fill="#b0bccc" d="M 226.5,97.5 C 227.235,104.368 227.902,111.368 228.5,118.5C 227.504,118.586 226.671,118.252 226,117.5C 225.179,110.654 225.346,103.987 226.5,97.5 Z"/></g>
<g><path style="opacity:0.273" fill="#b7c1ce" d="M 137.5,138.5 C 132.26,139.449 126.927,139.782 121.5,139.5C 120.833,139.5 120.167,139.5 119.5,139.5C 119.611,138.883 119.944,138.383 120.5,138C 126.349,137.182 132.015,137.348 137.5,138.5 Z"/></g>
<g><path style="opacity:0.271" fill="#b1bfcc" d="M 207.5,142.5 C 207.586,141.504 207.252,140.671 206.5,140C 201.316,139.826 196.316,139.326 191.5,138.5C 196.65,137.349 201.984,137.183 207.5,138C 208.801,139.616 208.801,141.116 207.5,142.5 Z"/></g>
<g><path style="opacity:0.275" fill="#b3bfcd" d="M 315.5,140.5 C 309.699,139.92 304.032,139.253 298.5,138.5C 303.65,137.349 308.984,137.183 314.5,138C 315.252,138.671 315.586,139.504 315.5,140.5 Z"/></g>
<g><path style="opacity:0.803" fill="#a7b9cc" d="M 154.5,138.5 C 160.833,137.167 167.167,137.167 173.5,138.5C 167.266,139.807 160.932,139.807 154.5,138.5 Z"/></g>
<g><path style="opacity:0.802" fill="#a9bacd" d="M 260.5,138.5 C 267.167,137.167 273.833,137.167 280.5,138.5C 273.833,139.833 267.167,139.833 260.5,138.5 Z"/></g>
<g><path style="opacity:0.991" fill="#326294" d="M 137.5,138.5 C 143.167,138.5 148.833,138.5 154.5,138.5C 160.932,139.807 167.266,139.807 173.5,138.5C 179.5,138.5 185.5,138.5 191.5,138.5C 196.316,139.326 201.316,139.826 206.5,140C 207.252,140.671 207.586,141.504 207.5,142.5C 207.5,170.167 207.5,197.833 207.5,225.5C 178.831,225.667 150.165,225.5 121.5,225C 120.171,196.5 120.171,168 121.5,139.5C 126.927,139.782 132.26,139.449 137.5,138.5 Z"/></g>
<g><path style="opacity:0.995" fill="#326294" d="M 243.5,138.5 C 249.167,138.5 254.833,138.5 260.5,138.5C 267.167,139.833 273.833,139.833 280.5,138.5C 286.5,138.5 292.5,138.5 298.5,138.5C 304.032,139.253 309.699,139.92 315.5,140.5C 315.5,141.167 315.5,141.833 315.5,142.5C 314.698,143.952 314.198,145.618 314,147.5C 313.54,173.259 313.373,198.926 313.5,224.5C 284.841,225.5 256.174,225.833 227.5,225.5C 227.333,197.165 227.5,168.831 228,140.5C 233.267,139.855 238.433,139.188 243.5,138.5 Z"/></g>
<g><path style="opacity:0.818" fill="#abbace" d="M 243.5,138.5 C 238.433,139.188 233.267,139.855 228,140.5C 227.5,168.831 227.333,197.165 227.5,225.5C 227.5,225.833 227.5,226.167 227.5,226.5C 226.167,212.349 225.501,197.849 225.5,183C 225.667,168.5 225.833,154 226,139.5C 226.5,139 227,138.5 227.5,138C 233.016,137.183 238.35,137.349 243.5,138.5 Z"/></g>
<g><path style="opacity:0.071" fill="#60718d" d="M 119.5,139.5 C 120.167,139.5 120.833,139.5 121.5,139.5C 120.171,168 120.171,196.5 121.5,225C 150.165,225.5 178.831,225.667 207.5,225.5C 178.67,226.664 149.67,226.83 120.5,226C 119.505,197.24 119.171,168.407 119.5,139.5 Z"/></g>
<g><path style="opacity:0.071" fill="#5e728d" d="M 315.5,142.5 C 316.097,142.735 316.43,143.235 316.5,144C 316,145.5 315.5,147 315,148.5C 314.564,174.429 314.398,200.262 314.5,226C 285.502,226.5 256.502,226.667 227.5,226.5C 227.5,226.167 227.5,225.833 227.5,225.5C 256.174,225.833 284.841,225.5 313.5,224.5C 313.373,198.926 313.54,173.259 314,147.5C 314.198,145.618 314.698,143.952 315.5,142.5 Z"/></g>
<g><path style="opacity:0.995" fill="#336295" d="M 102.5,332.5 C 101.527,332.987 100.527,333.487 99.5,334C 71.3303,334.168 43.3303,334.668 15.5,335.5C 13.508,306.519 12.8413,277.186 13.5,247.5C 42.5428,247.634 71.5428,247.467 100.5,247C 101.126,247.75 101.626,248.584 102,249.5C 102.167,252.667 102.333,255.833 102.5,259C 101.154,265.996 100.488,273.162 100.5,280.5C 102.298,297.669 102.964,315.002 102.5,332.5 Z"/></g>
<g><path style="opacity:0.996" fill="#326295" d="M 206.5,335.5 C 206.167,335.5 205.833,335.5 205.5,335.5C 177.5,334.833 149.5,334.167 121.5,333.5C 120.343,305.572 120.176,277.572 121,249.5C 149.426,248.505 177.926,248.171 206.5,248.5C 206.5,277.5 206.5,306.5 206.5,335.5 Z"/></g>
<g><path style="opacity:0.991" fill="#ec8b00" d="M 228.5,334.5 C 227.833,334.5 227.5,334.167 227.5,333.5C 227.5,305.167 227.5,276.833 227.5,248.5C 256.167,248.5 284.833,248.5 313.5,248.5C 313.5,277.167 313.5,305.833 313.5,334.5C 285.167,334.5 256.833,334.5 228.5,334.5 Z"/></g>
<g><path style="opacity:0.268" fill="#4c6b90" d="M 206.5,335.5 C 206.5,306.5 206.5,277.5 206.5,248.5C 177.926,248.171 149.426,248.505 121,249.5C 120.176,277.572 120.343,305.572 121.5,333.5C 120.833,333.5 120.167,333.5 119.5,333.5C 119.171,304.593 119.505,275.76 120.5,247C 149.482,247.833 178.482,247.666 207.5,246.5C 207.831,276.338 207.498,306.005 206.5,335.5 Z"/></g>
<g><path style="opacity:0.188" fill="#d7984a" d="M 228.5,334.5 C 256.833,334.5 285.167,334.5 313.5,334.5C 313.5,305.833 313.5,277.167 313.5,248.5C 284.833,248.5 256.167,248.5 227.5,248.5C 227.5,276.833 227.5,305.167 227.5,333.5C 226.502,305.005 226.169,276.338 226.5,247.5C 255.833,247.5 285.167,247.5 314.5,247.5C 314.5,276.833 314.5,306.167 314.5,335.5C 285.662,335.831 256.995,335.498 228.5,334.5 Z"/></g>
<g><path style="opacity:0.318" fill="#e0e7ee" d="M 102.5,332.5 C 102.586,333.496 102.252,334.329 101.5,335C 72.8353,335.5 44.1686,335.667 15.5,335.5C 43.3303,334.668 71.3303,334.168 99.5,334C 100.527,333.487 101.527,332.987 102.5,332.5 Z"/></g>
<g><path style="opacity:0.318" fill="#e0e6ed" d="M 119.5,333.5 C 120.167,333.5 120.833,333.5 121.5,333.5C 149.5,334.167 177.5,334.833 205.5,335.5C 177.165,335.667 148.831,335.5 120.5,335C 119.944,334.617 119.611,334.117 119.5,333.5 Z"/></g>
</svg>
